<?xml version="1.0" encoding="UTF-8" standalone="no"?>
<svg
   xmlns:dc="http://purl.org/dc/elements/1.1/"
   xmlns:cc="http://creativecommons.org/ns#"
   xmlns:rdf="http://www.w3.org/1999/02/22-rdf-syntax-ns#"
   xmlns:svg="http://www.w3.org/2000/svg"
   xmlns="http://www.w3.org/2000/svg"
   xmlns:sodipodi="http://sodipodi.sourceforge.net/DTD/sodipodi-0.dtd"
   xmlns:inkscape="http://www.inkscape.org/namespaces/inkscape"
   width="64"
   height="64"
   viewBox="0 0 16.933333 16.933334"
   version="1.1"
   id="svg8"
   sodipodi:docname="brownie.svg"
   inkscape:version="1.0.2 (e86c870879, 2021-01-15)"
   inkscape:export-filename="/home/krock/Dev/love2D/love2d-jam-2021/assets/chocolate-mousse.png"
   inkscape:export-xdpi="96"
   inkscape:export-ydpi="96">
  <defs
     id="defs2" />
  <sodipodi:namedview
     id="base"
     pagecolor="#ffffff"
     bordercolor="#666666"
     borderopacity="1.0"
     inkscape:pageopacity="0"
     inkscape:pageshadow="2"
     inkscape:zoom="7.9195959"
     inkscape:cx="53.439612"
     inkscape:cy="41.733685"
     inkscape:document-units="px"
     inkscape:current-layer="layer1"
     inkscape:document-rotation="0"
     showgrid="false"
     units="px"
     inkscape:showpageshadow="false"
     inkscape:window-width="2507"
     inkscape:window-height="1412"
     inkscape:window-x="1133"
     inkscape:window-y="366"
     inkscape:window-maximized="1" />
  <metadata
     id="metadata5">
    <rdf:RDF>
      <cc:Work
         rdf:about="">
        <dc:format>image/svg+xml</dc:format>
        <dc:type
           rdf:resource="http://purl.org/dc/dcmitype/StillImage" />
        <dc:title></dc:title>
      </cc:Work>
    </rdf:RDF>
  </metadata>
  <g
     inkscape:label="Calque 1"
     inkscape:groupmode="layer"
     id="layer1">
    <rect
       style="fill:#803300;stroke:none;stroke-width:0.529167;stroke-linejoin:bevel;stroke-miterlimit:4;stroke-dasharray:none;stroke-opacity:1"
       id="rect1793"
       width="13.229167"
       height="6.6145835"
       x="1.8520833"
       y="1.5875" />
    <path
       style="fill:none;stroke:#000000;stroke-width:0.264583px;stroke-linecap:butt;stroke-linejoin:miter;stroke-opacity:1"
       d="M 2.8750438,3.6190749 C 3.0484684,3.49385 3.1861642,3.4290959 3.3782546,3.3450441 3.4654684,3.3068824 3.5134688,3.257213 3.6111099,3.2327819 c 0.132112,-0.033056 0.2799797,-0.03807 0.4081862,-0.072529 0.018325,-0.00492 0.028841,-0.027139 0.047247,-0.031747 0.013499,-0.00338 0.3491296,-0.032105 0.3492338,-0.032092 0.2064028,0.025799 0.4108459,0.065702 0.608646,0.1417413 0.1204703,0.046312 0.2285539,0.1338164 0.3484292,0.1760429 0.019889,0.00701 0.042631,-0.00438 0.063258,0 0.1495613,0.031745 0.3019568,0.1002101 0.4540777,0.1291074 0.1032512,0.019614 0.2232329,0.00685 0.3261817,0.032586 0.010803,0.0027 0.013687,0.018595 0.023625,0.023625 0.034593,0.017507 0.1006419,0.016105 0.1389438,0.023625 0.048639,-0.00677 0.078539,0.036795 0.1203497,0.047247 0.1221415,0.030536 0.2529988,0.0654 0.3748328,0.095306 C 7.0045946,3.7977205 7.1086269,3.7164695 7.2146489,3.660571 7.2859149,3.622998 7.3763463,3.62317 7.448531,3.589701 7.532127,3.550941 7.5882196,3.4837145 7.7052176,3.4455507 7.8578518,3.3957627 8.0463759,3.3322955 8.209328,3.3184761 c 0.1289865,-0.010938 0.2517042,-0.00559 0.3779763,-0.023625 0.096511,-0.013787 0.1361565,0.016108 0.2390439,0.024612 0.1136312,0.00939 0.2283532,-0.00848 0.3420563,0 0.2556068,0.019058 0.5795753,0.048149 0.8280516,0.1002297 0.2527109,0.052968 -0.1472602,0.016748 0.2088339,0.065442 0.191084,0.02613 0.447726,0.064134 0.640799,0.025519 0.14458,-0.028916 0.325089,-0.1094997 0.486295,-0.141741 0.206534,-0.041307 0.42202,-0.05076 0.62679,-0.088434 0.188918,-0.034757 0.393059,-0.095254 0.592762,-0.05558 0.02554,0.00507 0.04528,0.02806 0.07087,0.032853 0.03426,0.00642 0.07003,-0.00474 0.104558,0 0.166894,0.022929 0.362592,0.1141761 0.513304,0.1855708 0.262041,0.1241337 0.286611,0.2004999 0.579295,0.2004999"
       id="path1813" />
    <path
       style="fill:none;stroke:#000000;stroke-width:0.264583px;stroke-linecap:butt;stroke-linejoin:miter;stroke-opacity:1"
       d="m 3.1888447,5.1922881 c 0.1734246,-0.1252249 0.3111204,-0.189979 0.5032108,-0.2740308 0.087214,-0.038162 0.1352142,-0.087831 0.2328553,-0.1122622 0.132112,-0.033056 0.2799797,-0.03807 0.4081862,-0.072529 0.018325,-0.00492 0.028841,-0.027139 0.047247,-0.031747 0.013499,-0.00338 0.3491296,-0.032105 0.3492338,-0.032092 0.2064028,0.025799 0.4108459,0.065702 0.608646,0.1417413 0.1204703,0.046312 0.2285539,0.1338164 0.3484292,0.1760429 0.019889,0.00701 0.042631,-0.00438 0.063258,0 0.1495613,0.031745 0.3019568,0.1002101 0.4540777,0.1291074 0.1032512,0.019614 0.2232329,0.00685 0.3261817,0.032586 0.010803,0.0027 0.013687,0.018595 0.023625,0.023625 0.034593,0.017507 0.1006419,0.016105 0.1389438,0.023625 0.048639,-0.00677 0.078539,0.036795 0.1203497,0.047247 0.1221415,0.030536 0.2529988,0.0654 0.3748328,0.095306 0.1304738,0.032026 0.2345061,-0.049225 0.3405281,-0.1051235 0.071266,-0.037573 0.1616974,-0.037401 0.2338821,-0.07087 0.083596,-0.03876 0.1396886,-0.1059865 0.2566866,-0.1441503 0.1526342,-0.049788 0.3411583,-0.1132552 0.5041104,-0.1270746 0.1289865,-0.010938 0.2517042,-0.00559 0.3779763,-0.023625 0.096511,-0.013787 0.1361565,0.016108 0.2390439,0.024612 0.1136312,0.00939 0.2283532,-0.00848 0.3420563,0 0.2556068,0.019058 0.5795756,0.048149 0.8280516,0.1002297 0.252711,0.052968 -0.14726,0.016748 0.208834,0.065442 0.191084,0.02613 0.447726,0.064134 0.640799,0.025519 0.14458,-0.028916 0.325089,-0.1094997 0.486295,-0.141741 0.206534,-0.041307 0.42202,-0.05076 0.62679,-0.088434 0.188918,-0.034757 0.393059,-0.095254 0.592762,-0.05558 0.02554,0.00507 0.04528,0.02806 0.07087,0.032853 0.03426,0.00642 0.07003,-0.00474 0.104558,0 0.166894,0.022929 0.362592,0.1141761 0.513304,0.1855708 0.262041,0.1241337 0.286611,0.2004999 0.579295,0.2004999"
       id="path1813-7" />
    <path
       style="fill:none;stroke:#000000;stroke-width:0.264583px;stroke-linecap:butt;stroke-linejoin:miter;stroke-opacity:1"
       d="M 3.046994,6.802453 C 3.2204186,6.6772281 3.3581144,6.612474 3.5502048,6.5284222 3.6374188,6.4902602 3.685419,6.4405912 3.7830601,6.41616 3.9151721,6.383104 4.0630398,6.37809 4.1912463,6.343631 c 0.018325,-0.00492 0.028841,-0.027139 0.047247,-0.031747 0.013499,-0.00338 0.3491296,-0.032105 0.3492338,-0.032092 0.2064028,0.025799 0.4108459,0.065702 0.608646,0.1417413 0.1204703,0.046312 0.2285539,0.1338164 0.3484292,0.1760429 0.019889,0.00701 0.042631,-0.00438 0.063258,0 0.1495613,0.031745 0.3019568,0.1002101 0.4540777,0.1291074 0.1032512,0.019614 0.2232329,0.00685 0.3261817,0.032586 0.010803,0.0027 0.013687,0.018595 0.023625,0.023625 0.034593,0.017507 0.1006419,0.016105 0.1389438,0.023625 0.048639,-0.00677 0.078539,0.036795 0.1203497,0.047247 0.1221415,0.030536 0.2529988,0.0654 0.3748328,0.095306 0.1304738,0.032026 0.2345061,-0.049225 0.3405281,-0.1051235 0.071266,-0.037573 0.1616974,-0.037401 0.2338821,-0.07087 0.083596,-0.03876 0.1396886,-0.1059865 0.2566866,-0.1441503 0.1526342,-0.049788 0.3411583,-0.1132552 0.5041104,-0.1270746 0.1289865,-0.010938 0.2517042,-0.00559 0.3779763,-0.023625 0.096511,-0.013787 0.1361565,0.016108 0.2390439,0.024612 0.1136312,0.00939 0.2283532,-0.00848 0.3420563,0 0.2556068,0.019058 0.5795753,0.048149 0.8280513,0.1002297 0.252711,0.052968 -0.14726,0.016748 0.208834,0.065442 0.191084,0.02613 0.447726,0.064134 0.640799,0.025519 0.14458,-0.028916 0.325089,-0.1094997 0.486295,-0.141741 0.206534,-0.041307 0.42202,-0.05076 0.62679,-0.088434 0.188918,-0.034757 0.393059,-0.095254 0.592762,-0.05558 0.02554,0.00507 0.04528,0.02806 0.07087,0.032853 0.03426,0.00642 0.07003,-0.00474 0.104558,0 0.166894,0.022929 0.362592,0.1141761 0.513304,0.1855708 0.262041,0.1241337 0.286611,0.2004999 0.579295,0.2004999"
       id="path1813-4" />
    <rect
       style="fill:#803300;stroke:none;stroke-width:0.529167;stroke-linejoin:bevel;stroke-miterlimit:4;stroke-dasharray:none;stroke-opacity:1"
       id="rect1793-1"
       width="13.229167"
       height="6.6145835"
       x="1.8520833"
       y="8.9958334" />
    <path
       style="fill:none;stroke:#000000;stroke-width:0.264583px;stroke-linecap:butt;stroke-linejoin:miter;stroke-opacity:1"
       d="m 2.8750445,11.027408 c 0.173424,-0.125225 0.31112,-0.189979 0.503211,-0.274031 0.08721,-0.03816 0.135214,-0.08783 0.232855,-0.112262 0.132112,-0.03306 0.2799799,-0.03807 0.4081859,-0.07253 0.01832,-0.0049 0.02884,-0.02714 0.04725,-0.03175 0.0135,-0.0034 0.34913,-0.0321 0.349234,-0.03209 0.206403,0.0258 0.410846,0.0657 0.608646,0.141741 0.12047,0.04631 0.228554,0.133817 0.348429,0.176043 0.01989,0.007 0.04263,-0.0044 0.06326,0 0.149561,0.03175 0.301957,0.10021 0.454078,0.129108 0.103251,0.01961 0.223233,0.0069 0.326181,0.03259 0.0108,0.0027 0.01369,0.01859 0.02363,0.02362 0.03459,0.01751 0.100642,0.01611 0.138944,0.02363 0.04864,-0.0068 0.07854,0.03679 0.12035,0.04725 0.122141,0.03054 0.252999,0.0654 0.374833,0.09531 0.130474,0.03203 0.234506,-0.04922 0.340528,-0.105124 0.07127,-0.03757 0.161697,-0.0374 0.233882,-0.07087 0.0836,-0.03876 0.139689,-0.105986 0.256687,-0.14415 0.152634,-0.04979 0.341158,-0.113255 0.50411,-0.127075 0.128986,-0.01094 0.251704,-0.0056 0.377976,-0.02362 0.09651,-0.01379 0.136157,0.01611 0.239044,0.02461 0.113631,0.0094 0.228353,-0.0085 0.342056,0 0.255607,0.01906 0.579576,0.04815 0.8280519,0.10023 0.2527107,0.05297 -0.1472599,0.01675 0.2088337,0.06544 0.191084,0.02613 0.447726,0.06413 0.640799,0.02552 0.14458,-0.02892 0.325089,-0.1095 0.486295,-0.141741 0.206534,-0.04131 0.42202,-0.05076 0.62679,-0.08843 0.188918,-0.03476 0.393059,-0.09525 0.592762,-0.05558 0.02554,0.0051 0.04528,0.02806 0.07087,0.03285 0.03426,0.0064 0.07003,-0.0047 0.104558,0 0.166894,0.02293 0.362592,0.114176 0.513304,0.185571 0.262041,0.124133 0.286611,0.2005 0.579295,0.2005"
       id="path1813-8" />
    <path
       style="fill:none;stroke:#000000;stroke-width:0.264583px;stroke-linecap:butt;stroke-linejoin:miter;stroke-opacity:1"
       d="m 3.1888455,12.600621 c 0.173424,-0.125225 0.31112,-0.189979 0.503211,-0.274031 0.08721,-0.03816 0.135214,-0.08783 0.2328549,-0.112262 0.132112,-0.03306 0.279979,-0.03807 0.408186,-0.07253 0.01832,-0.0049 0.02884,-0.02714 0.04725,-0.03175 0.0135,-0.0034 0.34913,-0.0321 0.349234,-0.03209 0.206403,0.0258 0.410846,0.0657 0.608646,0.141741 0.12047,0.04631 0.228554,0.133817 0.348429,0.176043 0.01989,0.007 0.04263,-0.0044 0.06326,0 0.149561,0.03174 0.301957,0.100211 0.454078,0.129108 0.103251,0.01961 0.223233,0.0069 0.326181,0.03259 0.0108,0.0027 0.01369,0.0186 0.02362,0.02363 0.03459,0.01751 0.100642,0.0161 0.138944,0.02362 0.04864,-0.0068 0.07854,0.0368 0.12035,0.04725 0.122141,0.03054 0.252999,0.0654 0.374833,0.09531 0.130473,0.03203 0.234506,-0.04922 0.340528,-0.105124 0.07127,-0.03757 0.161697,-0.0374 0.233882,-0.07087 0.0836,-0.03876 0.139688,-0.105986 0.256686,-0.14415 0.152635,-0.04979 0.341159,-0.113255 0.504111,-0.127075 0.128986,-0.01094 0.251704,-0.0056 0.377976,-0.02362 0.09651,-0.01379 0.136157,0.01611 0.239044,0.02461 0.113631,0.0094 0.228353,-0.0085 0.342056,0 0.255607,0.01906 0.5795756,0.04815 0.8280516,0.10023 0.252711,0.05297 -0.14726,0.01675 0.208834,0.06544 0.191084,0.02613 0.447726,0.06413 0.640799,0.02552 0.14458,-0.02892 0.325089,-0.1095 0.486295,-0.141741 0.206534,-0.04131 0.42202,-0.05076 0.62679,-0.08843 0.188918,-0.03476 0.393059,-0.09525 0.592762,-0.05558 0.02554,0.0051 0.04528,0.02806 0.07087,0.03285 0.03426,0.0064 0.07003,-0.0047 0.104558,0 0.166894,0.02293 0.362592,0.114176 0.513304,0.185571 0.262041,0.124134 0.286611,0.2005 0.579295,0.2005"
       id="path1813-7-5" />
    <path
       style="fill:none;stroke:#000000;stroke-width:0.264583px;stroke-linecap:butt;stroke-linejoin:miter;stroke-opacity:1"
       d="m 3.0469945,14.210786 c 0.173425,-0.125225 0.31112,-0.189979 0.503211,-0.274031 0.08721,-0.03816 0.135214,-0.08783 0.232855,-0.112262 0.1321119,-0.03306 0.2799799,-0.03807 0.4081859,-0.07253 0.01833,-0.0049 0.02884,-0.02714 0.04725,-0.03175 0.0135,-0.0034 0.34913,-0.0321 0.349234,-0.03209 0.206403,0.0258 0.410846,0.0657 0.608646,0.141741 0.12047,0.04631 0.228554,0.133817 0.348429,0.176043 0.01989,0.007 0.04263,-0.0044 0.06326,0 0.149562,0.03174 0.301957,0.10021 0.454078,0.129108 0.103251,0.01961 0.223233,0.0069 0.326182,0.03259 0.0108,0.0027 0.01369,0.0186 0.02363,0.02363 0.03459,0.01751 0.100642,0.0161 0.138943,0.02362 0.04864,-0.0068 0.07854,0.03679 0.12035,0.04725 0.122142,0.03054 0.252999,0.0654 0.374833,0.09531 0.130474,0.03203 0.234506,-0.04923 0.340528,-0.105124 0.07127,-0.03757 0.161697,-0.0374 0.233882,-0.07087 0.0836,-0.03876 0.139689,-0.105986 0.256687,-0.14415 0.152634,-0.04979 0.341158,-0.113255 0.50411,-0.127075 0.128987,-0.01094 0.251704,-0.0056 0.377977,-0.02363 0.09651,-0.01379 0.136156,0.01611 0.239043,0.02461 0.113632,0.0094 0.228354,-0.0085 0.342057,0 0.255606,0.01906 0.579575,0.04815 0.8280506,0.10023 0.252711,0.05297 -0.14726,0.01675 0.208834,0.06544 0.191084,0.02613 0.447726,0.06413 0.640799,0.02552 0.14458,-0.02892 0.325089,-0.1095 0.486295,-0.141741 0.206534,-0.04131 0.42202,-0.05076 0.62679,-0.08843 0.188918,-0.03476 0.393059,-0.09525 0.592762,-0.05558 0.02554,0.0051 0.04528,0.02806 0.07087,0.03285 0.03426,0.0064 0.07003,-0.0047 0.104558,0 0.166894,0.02293 0.362592,0.114176 0.513304,0.185571 0.262041,0.124133 0.286611,0.2005 0.579295,0.2005"
       id="path1813-4-9" />
  </g>
</svg>
