<?xml version="1.0" encoding="UTF-8" standalone="no"?>
<svg
   xmlns:dc="http://purl.org/dc/elements/1.1/"
   xmlns:cc="http://creativecommons.org/ns#"
   xmlns:rdf="http://www.w3.org/1999/02/22-rdf-syntax-ns#"
   xmlns:svg="http://www.w3.org/2000/svg"
   xmlns="http://www.w3.org/2000/svg"
   xmlns:sodipodi="http://sodipodi.sourceforge.net/DTD/sodipodi-0.dtd"
   xmlns:inkscape="http://www.inkscape.org/namespaces/inkscape"
   width="64"
   height="64"
   viewBox="0 0 16.933333 16.933334"
   version="1.1"
   id="svg8"
   sodipodi:docname="spread.svg"
   inkscape:version="1.0.2 (e86c870879, 2021-01-15)"
   inkscape:export-filename="/home/krock/Dev/love2D/love2d-jam-2021/assets/chocolate-milk.png"
   inkscape:export-xdpi="96"
   inkscape:export-ydpi="96">
  <defs
     id="defs2" />
  <sodipodi:namedview
     id="base"
     pagecolor="#ffffff"
     bordercolor="#666666"
     borderopacity="1.0"
     inkscape:pageopacity="0"
     inkscape:pageshadow="2"
     inkscape:zoom="2.8"
     inkscape:cx="29.30048"
     inkscape:cy="47.644157"
     inkscape:document-units="px"
     inkscape:current-layer="layer1"
     inkscape:document-rotation="0"
     showgrid="false"
     units="px"
     inkscape:showpageshadow="false"
     inkscape:window-width="2507"
     inkscape:window-height="1412"
     inkscape:window-x="1133"
     inkscape:window-y="366"
     inkscape:window-maximized="1" />
  <metadata
     id="metadata5">
    <rdf:RDF>
      <cc:Work
         rdf:about="">
        <dc:format>image/svg+xml</dc:format>
        <dc:type
           rdf:resource="http://purl.org/dc/dcmitype/StillImage" />
        <dc:title></dc:title>
      </cc:Work>
    </rdf:RDF>
  </metadata>
  <g
     inkscape:label="Calque 1"
     inkscape:groupmode="layer"
     id="layer1">
    <path
       id="rect1898"
       style="fill:#d4aa00;stroke:none;stroke-width:0.579985;stroke-linejoin:bevel;stroke-miterlimit:4;stroke-dasharray:none;stroke-opacity:1"
       d="M 1.7453824,4.7054334 C 3.065711,3.7083022 12.769175,2.2713487 14.277185,3.3456177 c 1.508011,1.0742691 2.324001,2.9376034 2.324001,4.2605201 0,1.3229167 -0.664644,5.2093772 -3.590219,6.1668082 C 10.085392,14.730377 5.0407331,14.89017 2.668479,12.976039 0.29622478,11.061909 0.42199732,9.2288544 0.42199732,7.9059372 c 0,-1.3229167 0.003056,-2.2033726 1.32338508,-3.2005038 z"
       sodipodi:nodetypes="zzzzzzz" />
    <path
       id="rect1898-7"
       style="fill:#784421;stroke:none;stroke-width:0.484546;stroke-linejoin:bevel;stroke-miterlimit:4;stroke-dasharray:none;stroke-opacity:1"
       d="m 2.6771087,5.4403865 c 1.1512116,-0.7982061 9.6117873,-1.948491 10.9266403,-1.088536 1.314855,0.8599552 2.026327,2.351559 2.026327,3.4105572 0,1.0589982 -0.579512,4.1701193 -3.130358,4.9365453 C 9.9488713,13.465379 5.5503676,13.593294 3.4819686,12.061027 1.4135695,10.528761 1.5232322,9.0613965 1.5232322,8.0023979 c 0,-1.0589982 0.00267,-1.7638054 1.1538765,-2.5620114 z"
       sodipodi:nodetypes="zzzzzzz" />
  </g>
</svg>
